<svg width="23" height="23" viewBox="0 0 23 23" fill="none" xmlns="http://www.w3.org/2000/svg">
<path d="M13.9469 4.27695C13.4123 4.17818 12.9213 4.51937 12.8195 5.04125C12.7177 5.56313 13.06 6.07266 13.5801 6.17479C15.1459 6.48007 16.355 7.69217 16.6615 9.26343C16.7487 9.71572 17.1469 10.0457 17.6055 10.0457C17.667 10.0457 17.7285 10.0401 17.7912 10.0289C18.3113 9.92447 18.6535 9.41606 18.5517 8.89306C18.0943 6.54628 16.2879 4.73373 13.9469 4.27695Z" fill="black"/>
<path d="M13.877 0.366328C13.6265 0.330413 13.3748 0.404487 13.1746 0.563856C12.9688 0.725471 12.8402 0.958914 12.8122 1.22042C12.7529 1.74903 13.1343 2.22714 13.6623 2.28662C17.3029 2.6929 20.1327 5.52901 20.5421 9.18105C20.5969 9.67038 21.0074 10.0396 21.4973 10.0396C21.5342 10.0396 21.57 10.0374 21.6069 10.0329C21.863 10.0048 22.0912 9.87801 22.2523 9.67599C22.4122 9.47397 22.4849 9.22257 22.4558 8.96556C21.9458 4.40893 18.4192 0.872495 13.877 0.366328Z" fill="black"/>
<path fill-rule="evenodd" clip-rule="evenodd" d="M10.1435 12.6804C14.6236 17.1593 15.6399 11.9777 18.4925 14.8283C21.2425 17.5775 22.8231 18.1284 19.3388 21.6116C18.9024 21.9624 16.1294 26.1821 6.38434 16.4397C-3.36196 6.69616 0.855331 3.92037 1.20617 3.48406C4.69887 -0.0088799 5.2402 1.5809 7.99023 4.33017C10.8428 7.18189 5.66337 8.20157 10.1435 12.6804Z" fill="black"/>
</svg>
